<?xml version="1.0" encoding="UTF-8" standalone="no"?>
<!-- Created with Inkscape (http://www.inkscape.org/) -->

<svg
   xmlns:dc="http://purl.org/dc/elements/1.1/"
   xmlns:cc="http://creativecommons.org/ns#"
   xmlns:rdf="http://www.w3.org/1999/02/22-rdf-syntax-ns#"
   xmlns:svg="http://www.w3.org/2000/svg"
   xmlns="http://www.w3.org/2000/svg"
   xmlns:xlink="http://www.w3.org/1999/xlink"
   xmlns:sodipodi="http://sodipodi.sourceforge.net/DTD/sodipodi-0.dtd"
   xmlns:inkscape="http://www.inkscape.org/namespaces/inkscape"
   width="319.17307"
   height="313.17737"
   id="svg6864"
   version="1.1"
   inkscape:version="0.48.2 r9819"
   sodipodi:docname="Red3.svg">
  <defs
     id="defs6866">
    <inkscape:perspective
       sodipodi:type="inkscape:persp3d"
       inkscape:vp_x="0 : 526.18109 : 1"
       inkscape:vp_y="0 : 1000 : 0"
       inkscape:vp_z="744.09448 : 526.18109 : 1"
       inkscape:persp3d-origin="372.04724 : 350.78739 : 1"
       id="perspective6872" />
    <inkscape:perspective
       id="perspective6802"
       inkscape:persp3d-origin="0.5 : 0.33333333 : 1"
       inkscape:vp_z="1 : 0.5 : 1"
       inkscape:vp_y="0 : 1000 : 0"
       inkscape:vp_x="0 : 0.5 : 1"
       sodipodi:type="inkscape:persp3d" />
    <linearGradient
       inkscape:collect="always"
       xlink:href="#linearGradient9376"
       id="linearGradient6301"
       gradientUnits="userSpaceOnUse"
       gradientTransform="matrix(4,0,0,4,-715.14498,-1918.8008)"
       x1="248.757"
       y1="634.69067"
       x2="249.81441"
       y2="664.505" />
    <linearGradient
       inkscape:collect="always"
       id="linearGradient9376">
      <stop
         style="stop-color:#dad9d9;stop-opacity:1;"
         offset="0"
         id="stop9378" />
      <stop
         id="stop9384"
         offset="0.27966022"
         style="stop-color:#dad9d9;stop-opacity:1" />
      <stop
         style="stop-color:#000000;stop-opacity:1"
         offset="1"
         id="stop9380" />
    </linearGradient>
    <filter
       color-interpolation-filters="sRGB"
       inkscape:collect="always"
       id="filter10343">
      <feGaussianBlur
         inkscape:collect="always"
         stdDeviation="0.74285713"
         id="feGaussianBlur10345" />
    </filter>
    <filter
       id="filter5660"
       inkscape:label="Motion blur, horizontal"
       inkscape:menu="Blurs"
       inkscape:menu-tooltip="Blur as if the object flies horizontally; adjust Standard Deviation to vary force"
       color-interpolation-filters="sRGB">
      <feGaussianBlur
         id="feGaussianBlur5662"
         in="SourceGraphic"
         stdDeviation="5 0.01" />
    </filter>
  </defs>
  <sodipodi:namedview
     id="base"
     pagecolor="#ffffff"
     bordercolor="#666666"
     borderopacity="1.0"
     inkscape:pageopacity="0.0"
     inkscape:pageshadow="2"
     inkscape:zoom="0.35"
     inkscape:cx="-286.12776"
     inkscape:cy="156.58872"
     inkscape:document-units="px"
     inkscape:current-layer="layer1"
     showgrid="false"
     inkscape:window-width="1366"
     inkscape:window-height="706"
     inkscape:window-x="-8"
     inkscape:window-y="-8"
     inkscape:window-maximized="1" />
  <metadata
     id="metadata6869">
    <rdf:RDF>
      <cc:Work
         rdf:about="">
        <dc:format>image/svg+xml</dc:format>
        <dc:type
           rdf:resource="http://purl.org/dc/dcmitype/StillImage" />
        <dc:title></dc:title>
      </cc:Work>
    </rdf:RDF>
  </metadata>
  <g
     inkscape:label="Capa 1"
     inkscape:groupmode="layer"
     id="layer1"
     transform="translate(-190.41347,-375.77354)">
    <g
       id="g5650"
       style="filter:url(#filter5660)">
      <rect
         transform="matrix(4,0,0,4,219.99784,-2751.0864)"
         ry="9.2857141"
         y="783.7193"
         x="-3.8928561"
         height="74.285713"
         width="74.285713"
         id="rect10609"
         style="opacity:0.72244903;fill:#888a85;fill-opacity:1;stroke:#888a85;stroke-width:0.44291338;stroke-miterlimit:4;stroke-opacity:1;stroke-dasharray:none;filter:url(#filter10343)" />
      <rect
         style="fill:#aa0000;fill-opacity:1;stroke:url(#linearGradient6301);stroke-width:1.77165353000000000;stroke-miterlimit:4;stroke-opacity:1;stroke-dasharray:none"
         id="rect10611"
         width="297.14285"
         height="297.14285"
         x="193.42642"
         y="377.79068"
         ry="37.142857" />
      <path
         transform="matrix(3.5070298,0,0,3.5070298,86.573848,426.31861)"
         d="m 80.963729,28.526606 c 0,4.491029 -3.640699,8.131728 -8.131728,8.131728 -4.49103,0 -8.131728,-3.640699 -8.131728,-8.131728 0,-4.49103 3.640698,-8.131729 8.131728,-8.131729 4.491029,0 8.131728,3.640699 8.131728,8.131729 z"
         sodipodi:ry="8.1317282"
         sodipodi:rx="8.1317282"
         sodipodi:cy="28.526606"
         sodipodi:cx="72.832001"
         id="path10617"
         style="fill:#e6e6e6;fill-opacity:1;stroke:none"
         sodipodi:type="arc" />
      <path
         sodipodi:type="arc"
         style="fill:#e6e6e6;fill-opacity:1;stroke:none"
         id="path10625"
         sodipodi:cx="72.832001"
         sodipodi:cy="28.526606"
         sodipodi:rx="8.1317282"
         sodipodi:ry="8.1317282"
         d="m 80.963729,28.526606 c 0,4.491029 -3.640699,8.131728 -8.131728,8.131728 -4.49103,0 -8.131728,-3.640699 -8.131728,-8.131728 0,-4.49103 3.640698,-8.131729 8.131728,-8.131729 4.491029,0 8.131728,3.640699 8.131728,8.131729 z"
         transform="matrix(3.5070298,0,0,3.5070298,174.57384,330.31861)" />
      <path
         transform="matrix(3.5070298,0,0,3.5070298,-1.4261516,514.31861)"
         d="m 80.963729,28.526606 c 0,4.491029 -3.640699,8.131728 -8.131728,8.131728 -4.49103,0 -8.131728,-3.640699 -8.131728,-8.131728 0,-4.49103 3.640698,-8.131729 8.131728,-8.131729 4.491029,0 8.131728,3.640699 8.131728,8.131729 z"
         sodipodi:ry="8.1317282"
         sodipodi:rx="8.1317282"
         sodipodi:cy="28.526606"
         sodipodi:cx="72.832001"
         id="path10627"
         style="fill:#e6e6e6;fill-opacity:1;stroke:none"
         sodipodi:type="arc" />
      <path
         id="path10631"
         d="m 313.60455,529.50737 c -0.0972,0.95872 -0.0952,1.8692 -0.0952,2.8536 0,15.75016 12.69068,28.53596 28.44084,28.53596 15.7502,0 28.53604,-12.7858 28.53604,-28.53596 0,-0.9844 0.002,-1.89488 -0.0948,-2.8536 -1.58836,14.24616 -13.77088,25.30188 -28.44092,25.30188 -14.67,0 -26.7574,-11.05572 -28.34572,-25.30188 z"
         style="fill:#800000;fill-opacity:1;stroke:none" />
      <path
         style="fill:#800000;fill-opacity:1;stroke:none"
         d="m 225.60454,617.50737 c -0.0972,0.95872 -0.0952,1.8692 -0.0952,2.8536 0,15.75016 12.69068,28.53596 28.44084,28.53596 15.7502,0 28.53604,-12.7858 28.53604,-28.53596 0,-0.9844 0.002,-1.89488 -0.0948,-2.8536 -1.58836,14.24616 -13.77088,25.30188 -28.44092,25.30188 -14.67,0 -26.7574,-11.05572 -28.34572,-25.30188 z"
         id="path10639" />
      <path
         style="fill:#800000;fill-opacity:1;stroke:none"
         d="m 401.60455,433.50737 c -0.0972,0.95872 -0.0952,1.8692 -0.0952,2.8536 0,15.75016 12.69068,28.53596 28.44084,28.53596 15.7502,0 28.53604,-12.7858 28.53604,-28.53596 0,-0.9844 0.002,-1.89488 -0.0948,-2.8536 -1.58836,14.24616 -13.77088,25.30188 -28.44092,25.30188 -14.67,0 -26.7574,-11.05572 -28.34572,-25.30188 z"
         id="path10643" />
    </g>
  </g>
</svg>
