<?xml version="1.0" encoding="UTF-8" standalone="no"?>
<!-- Created with Inkscape (http://www.inkscape.org/) -->
<svg
   xmlns:dc="http://purl.org/dc/elements/1.1/"
   xmlns:cc="http://creativecommons.org/ns#"
   xmlns:rdf="http://www.w3.org/1999/02/22-rdf-syntax-ns#"
   xmlns:svg="http://www.w3.org/2000/svg"
   xmlns="http://www.w3.org/2000/svg"
   xmlns:sodipodi="http://sodipodi.sourceforge.net/DTD/sodipodi-0.dtd"
   xmlns:inkscape="http://www.inkscape.org/namespaces/inkscape"
   width="744.09448819"
   height="1052.3622047"
   id="svg2458"
   sodipodi:version="0.32"
   inkscape:version="0.46+pre4"
   sodipodi:docname="4.svg"
   inkscape:output_extension="org.inkscape.output.svg.inkscape">
  <defs
     id="defs2460">
    <inkscape:perspective
       sodipodi:type="inkscape:persp3d"
       inkscape:vp_x="0 : 526.18109 : 1"
       inkscape:vp_y="0 : 1000 : 0"
       inkscape:vp_z="744.09448 : 526.18109 : 1"
       inkscape:persp3d-origin="372.04724 : 350.78739 : 1"
       id="perspective2466" />
    <inkscape:perspective
       id="perspective2475"
       inkscape:persp3d-origin="372.04724 : 350.78739 : 1"
       inkscape:vp_z="744.09448 : 526.18109 : 1"
       inkscape:vp_y="0 : 1000 : 0"
       inkscape:vp_x="0 : 526.18109 : 1"
       sodipodi:type="inkscape:persp3d" />
    <inkscape:perspective
       id="perspective2520"
       inkscape:persp3d-origin="372.04724 : 350.78739 : 1"
       inkscape:vp_z="744.09448 : 526.18109 : 1"
       inkscape:vp_y="0 : 1000 : 0"
       inkscape:vp_x="0 : 526.18109 : 1"
       sodipodi:type="inkscape:persp3d" />
  </defs>
  <sodipodi:namedview
     id="base"
     pagecolor="#ffffff"
     bordercolor="#666666"
     borderopacity="1.0"
     gridtolerance="10000"
     guidetolerance="10"
     objecttolerance="10"
     inkscape:pageopacity="0.0"
     inkscape:pageshadow="2"
     inkscape:zoom="0.35"
     inkscape:cx="-23.571429"
     inkscape:cy="520"
     inkscape:document-units="px"
     inkscape:current-layer="layer1"
     showgrid="false"
     inkscape:window-width="1280"
     inkscape:window-height="975"
     inkscape:window-x="-4"
     inkscape:window-y="-4" />
  <metadata
     id="metadata2463">
    <rdf:RDF>
      <cc:Work
         rdf:about="">
        <dc:format>image/svg+xml</dc:format>
        <dc:type
           rdf:resource="http://purl.org/dc/dcmitype/StillImage" />
        <cc:license
           rdf:resource="http://creativecommons.org/licenses/publicdomain/" />
        <dc:title>Toy soldier walk</dc:title>
        <dc:creator>
          <cc:Agent>
            <dc:title>Mohamed Ibrahim</dc:title>
          </cc:Agent>
        </dc:creator>
        <dc:publisher>
          <cc:Agent>
            <dc:title>clker.com</dc:title>
          </cc:Agent>
        </dc:publisher>
        <dc:subject>
          <rdf:Bag>
            <rdf:li>Toy soldier walk run</rdf:li>
          </rdf:Bag>
        </dc:subject>
      </cc:Work>
      <cc:License
         rdf:about="http://creativecommons.org/licenses/publicdomain/">
        <cc:permits
           rdf:resource="http://creativecommons.org/ns#Reproduction" />
        <cc:permits
           rdf:resource="http://creativecommons.org/ns#Distribution" />
        <cc:permits
           rdf:resource="http://creativecommons.org/ns#DerivativeWorks" />
      </cc:License>
    </rdf:RDF>
  </metadata>
  <g
     inkscape:label="Layer 1"
     inkscape:groupmode="layer"
     id="layer1">
    <path
       style="fill:#000000"
       d="M 445.00167,210.13759 C 443.11814,210.18339 441.14814,210.23867 439.12092,210.37762 C 422.43402,211.52143 422.29257,211.59521 411.57744,220.81894 C 402.29614,228.80851 400.0947,232.12258 395.73544,244.40192 C 389.44181,262.1301 389.41832,267.51838 395.49541,275.48585 C 398.13574,278.94751 400.29602,283.37937 400.29602,285.32709 C 400.29602,290.83636 394.75022,297.37464 390.09473,297.38862 C 387.7783,297.39557 383.30187,299.13078 380.13347,301.2291 C 376.35159,303.73375 371.1052,305.06131 364.89154,305.06959 C 354.83154,305.08303 346.59386,307.16613 333.80761,312.99059 C 329.4674,314.96767 324.48712,316.59106 322.70621,316.59104 C 320.92528,316.59104 315.42449,318.75134 310.46466,321.39165 C 305.50481,324.03198 300.03609,326.19228 298.34313,326.19226 C 296.65018,326.19226 293.80721,327.78251 292.04233,329.7327 C 290.27744,331.68288 285.17247,334.35334 280.7009,335.67345 C 276.22934,336.99356 269.89218,339.72385 266.59912,341.73421 C 263.30605,343.74459 259.18358,345.3947 257.41795,345.39468 C 255.65231,345.39468 250.95509,347.02565 247.03664,348.99513 C 243.11821,350.96461 236.82719,353.11232 233.05487,353.79574 C 229.28256,354.47915 223.29493,357.22871 219.73319,359.85651 C 216.17143,362.48428 211.89388,364.59712 210.19198,364.5971 C 208.49009,364.5971 204.16955,366.7574 200.59077,369.39771 C 197.012,372.03805 193.20195,374.19834 192.1297,374.19832 C 191.05748,374.19832 186.45394,378.27017 181.92841,383.19946 C 174.43889,391.35711 172.78773,392.19604 163.32606,392.98069 C 154.92465,393.6774 150.90608,392.90045 142.3234,388.84017 C 136.48279,386.07713 129.96383,383.79955 127.86157,383.79953 C 123.58817,383.79953 118.02033,388.55135 118.02033,392.20059 C 118.02033,396.26377 110.90066,409.62265 106.67889,413.44328 C 101.29395,418.31659 101.56972,424.54395 107.57901,431.68559 C 110.3095,434.93058 113.18418,439.93819 113.93981,442.847 C 115.93412,450.52401 126.04698,455.28474 138.48291,454.36845 C 148.19741,453.65268 170.04236,444.37192 178.50798,437.38631 C 182.64854,433.96962 201.40428,427.43843 216.85283,424.06462 C 222.11642,422.91511 227.73311,420.90623 229.3344,419.56405 C 230.93566,418.22188 236.05959,416.04041 240.73585,414.70344 C 245.4121,413.36647 251.45051,410.81232 254.11754,409.06273 C 258.00614,406.51172 263.91045,405.88234 284.00132,405.88232 L 309.08449,405.88232 L 308.4244,419.02399 C 307.7181,432.98219 301.40424,450.46525 294.32262,458.08892 C 290.98581,461.68114 289.05294,462.06705 280.16083,461.14931 C 270.63011,460.16565 269.3427,460.5598 262.99866,466.12994 C 259.22636,469.44205 255.35083,472.13072 254.41758,472.1307 C 250.86668,472.1307 245.16698,485.07813 243.97626,495.8337 C 243.2939,501.99742 241.46003,509.49083 239.89574,512.5158 C 234.65972,522.64117 236.17682,530.92953 244.75635,539.33919 C 252.86147,547.28382 253.97555,551.5308 249.61697,557.28146 C 248.15438,559.21119 246.39413,567.98874 245.65647,576.84394 C 244.60922,589.41596 243.29171,594.31978 239.71572,599.16676 C 237.19693,602.58078 235.15514,606.91572 235.15514,608.76797 C 235.15514,610.62024 231.05586,617.16222 226.03399,623.28981 C 213.60105,638.46022 206.3515,649.37753 206.3515,652.99356 C 206.3515,655.98663 198.71494,664.31397 179.82815,681.97723 C 173.87472,687.54499 169.29859,693.7921 168.18667,697.81923 C 166.29293,704.67778 162.69837,709.84775 150.00438,724.04254 C 145.93749,728.59026 140.99133,735.99607 139.02299,740.48462 C 137.05464,744.97319 134.63233,748.64567 133.68231,748.64565 C 132.73227,748.64565 129.49902,752.31814 126.4814,756.80669 C 123.46377,761.29525 118.61478,767.79933 115.68003,771.26851 C 112.74527,774.73768 110.33936,779.55751 110.33936,781.94986 C 110.33936,787.60932 106.89847,790.88564 100.79815,791.07102 C 98.105005,791.15288 91.616985,792.71964 86.336317,794.55146 C 78.924372,797.12264 75.966565,799.35627 73.374679,804.45271 C 68.644314,813.75415 68.942451,825.82451 74.034762,830.43599 C 77.796153,833.84226 82.985839,834.16866 149.10426,835.35662 C 188.15739,836.05829 220.56358,837.08714 221.11337,837.6369 C 221.66317,838.18671 270.17488,838.16182 328.947,837.5769 C 387.7191,836.99197 468.2246,836.70081 507.82961,836.91681 C 554.93067,837.17368 581.66525,836.62914 585.11938,835.29661 C 589.86968,833.46408 590.40005,832.29441 590.40005,823.95517 C 590.40005,816.6163 589.15485,812.99802 584.4593,806.61298 C 577.90666,797.70283 576.74271,797.33804 555.2356,795.99164 C 540.83743,795.09028 540.01146,794.72324 532.97279,787.47056 C 525.70755,779.98423 525.50112,779.95366 507.88962,778.94949 C 496.56921,778.30403 489.23966,776.9681 487.60705,775.28902 C 483.2241,770.78116 477.10573,749.23684 477.10573,738.38436 C 477.10573,730.63645 478.16918,726.71055 481.30626,722.72238 C 484.95184,718.08787 485.45091,715.2588 485.14674,701.11965 C 484.51633,671.79717 478.20749,643.93094 468.76467,628.57048 C 464.89423,622.27434 460.37722,614.1011 458.6834,610.44818 C 455.35312,603.26692 439.43375,581.11596 433.12017,574.86369 C 430.5288,572.29757 428.57186,566.74288 427.35944,558.18158 C 426.35803,551.11101 424.44693,542.22714 423.0989,538.49909 C 421.00929,532.72031 421.14392,530.78716 423.81899,525.1774 C 425.54471,521.5584 427.5237,513.25784 428.25955,506.75508 C 429.70511,493.97822 430.97983,492.04381 442.00129,485.51239 C 445.98983,483.14874 452.28659,479.26321 455.98306,476.8713 C 459.92685,474.31937 468.65493,471.58896 477.10573,470.27046 C 500.713,466.58734 515.92461,462.6077 525.47184,457.66887 C 530.42607,455.10602 538.20307,452.4552 542.75403,451.78813 C 547.305,451.12107 556.76727,447.25503 563.81669,443.14703 C 575.5897,436.28651 577.81987,435.64609 590.94012,435.64609 C 611.10439,435.64609 624.59779,432.75107 629.64501,427.30503 C 631.9518,424.81609 634.88359,422.44006 636.12583,422.02436 C 637.36803,421.60865 640.10125,416.56976 642.1866,410.86295 C 644.27179,405.15615 647.74259,398.60698 649.92757,396.28111 C 654.18264,391.75181 684.22924,376.11858 688.69247,376.11856 C 692.89646,376.11856 696.0134,372.01786 696.0134,366.39733 C 696.0134,355.82734 685.36245,352.82853 672.37041,359.73649 C 666.39807,362.91198 660.089,364.59712 654.42814,364.5971 C 648.72022,364.5971 643.81318,365.98938 640.20635,368.55761 C 627.05979,377.91875 601.68879,377.51341 590.64008,367.77751 C 576.44507,355.26931 573.11786,351.26903 573.11786,346.71484 C 573.11786,344.04432 571.8001,340.53648 570.17749,338.91386 C 568.55489,337.29123 565.83642,332.65008 564.17673,328.65256 C 560.607,320.05493 550.7912,311.00022 544.9143,310.89032 C 542.61903,310.84741 538.02983,313.14006 534.71301,315.93096 C 529.21439,320.55779 528.77579,321.70108 529.9124,328.89259 C 531.54422,339.2158 537.82964,352.21461 545.21434,360.69661 C 553.05046,369.69729 557.86872,380.48346 555.65566,383.97955 C 554.7132,385.46834 553.93159,389.4654 553.91544,392.86068 C 553.8826,399.77468 549.85545,402.99345 541.07381,403.06197 C 538.10013,403.08516 531.78464,404.88537 527.03204,407.08248 C 522.27944,409.2796 513.20629,411.52357 506.86949,412.06311 C 492.91643,413.25106 489.77472,410.72447 485.6268,394.84093 C 482.22759,381.82347 476.64187,369.79555 469.36475,359.7965 C 466.29025,355.57196 463.75916,349.87209 463.72403,347.1349 C 463.67104,342.99038 464.9071,341.80889 471.16498,339.93399 C 476.90112,338.21539 479.79597,335.7617 483.34652,329.55267 C 491.32896,315.59407 496.90571,297.98815 495.70808,290.60776 C 494.74527,284.67425 495.23443,283.63672 500.08863,281.12656 C 508.33166,276.86385 510.75182,267.58643 506.02938,258.32368 C 500.57724,247.62954 479.57677,222.91577 473.08522,219.55878 C 470.00534,217.96617 467.50451,215.86391 467.50451,214.93819 C 467.50451,211.68235 458.18638,209.817 445.00167,210.13759 z M 342.14867,606.54769 C 345.79386,606.54769 352.01389,611.539 366.57175,626.23018 C 377.29892,637.05555 389.0351,648.07294 392.67505,650.71327 C 405.08439,659.71472 415.50893,671.96587 416.85811,679.15687 C 417.56975,682.95092 417.04353,693.98596 415.71797,703.63997 C 413.54195,719.48948 413.66235,721.81101 416.67809,727.643 C 423.64838,741.12172 424.12988,790.60989 417.33817,794.9115 C 412.78316,797.79655 165.8053,795.17592 162.846,792.21116 C 161.99145,791.35506 161.2858,787.27975 161.2858,783.15002 C 161.2858,777.10327 162.56937,774.39765 167.94664,769.16825 C 171.61911,765.59677 178.84122,758.28704 183.96867,752.9662 C 191.06955,745.59752 195.71501,742.64812 203.53114,740.42462 C 213.8113,737.50018 221.85323,730.85432 233.05487,716.00153 C 235.60868,712.61528 243.54426,705.5421 250.6971,700.33955 C 264.007,690.65876 286.71627,667.6771 292.94245,657.55414 C 294.85528,654.44409 305.59199,641.69848 316.82546,629.23056 C 332.72698,611.58159 338.34649,606.54769 342.14867,606.54769 z"
       id="path2526" />
  </g>
</svg>
