<?xml version="1.0" encoding="UTF-8" standalone="no"?>
<!-- Created with Inkscape (http://www.inkscape.org/) -->

<svg
   xmlns:dc="http://purl.org/dc/elements/1.1/"
   xmlns:cc="http://creativecommons.org/ns#"
   xmlns:rdf="http://www.w3.org/1999/02/22-rdf-syntax-ns#"
   xmlns:svg="http://www.w3.org/2000/svg"
   xmlns="http://www.w3.org/2000/svg"
   xmlns:sodipodi="http://sodipodi.sourceforge.net/DTD/sodipodi-0.dtd"
   xmlns:inkscape="http://www.inkscape.org/namespaces/inkscape"
   width="1080"
   height="1080"
   id="svg2"
   version="1.1"
   inkscape:version="0.47 r22583"
   sodipodi:docname="Bullet.svg">
  <defs
     id="defs4">
    <inkscape:perspective
       sodipodi:type="inkscape:persp3d"
       inkscape:vp_x="0 : 526.18109 : 1"
       inkscape:vp_y="0 : 1000 : 0"
       inkscape:vp_z="744.09448 : 526.18109 : 1"
       inkscape:persp3d-origin="372.04724 : 350.78739 : 1"
       id="perspective10" />
    <inkscape:perspective
       id="perspective2820"
       inkscape:persp3d-origin="0.5 : 0.33333333 : 1"
       inkscape:vp_z="1 : 0.5 : 1"
       inkscape:vp_y="0 : 1000 : 0"
       inkscape:vp_x="0 : 0.5 : 1"
       sodipodi:type="inkscape:persp3d" />
    <inkscape:perspective
       id="perspective3151"
       inkscape:persp3d-origin="0.5 : 0.33333333 : 1"
       inkscape:vp_z="1 : 0.5 : 1"
       inkscape:vp_y="0 : 1000 : 0"
       inkscape:vp_x="0 : 0.5 : 1"
       sodipodi:type="inkscape:persp3d" />
    <inkscape:perspective
       id="perspective3151-7"
       inkscape:persp3d-origin="0.5 : 0.33333333 : 1"
       inkscape:vp_z="1 : 0.5 : 1"
       inkscape:vp_y="0 : 1000 : 0"
       inkscape:vp_x="0 : 0.5 : 1"
       sodipodi:type="inkscape:persp3d" />
    <inkscape:perspective
       id="perspective3151-0"
       inkscape:persp3d-origin="0.5 : 0.33333333 : 1"
       inkscape:vp_z="1 : 0.5 : 1"
       inkscape:vp_y="0 : 1000 : 0"
       inkscape:vp_x="0 : 0.5 : 1"
       sodipodi:type="inkscape:persp3d" />
    <inkscape:perspective
       id="perspective3191"
       inkscape:persp3d-origin="0.5 : 0.33333333 : 1"
       inkscape:vp_z="1 : 0.5 : 1"
       inkscape:vp_y="0 : 1000 : 0"
       inkscape:vp_x="0 : 0.5 : 1"
       sodipodi:type="inkscape:persp3d" />
    <inkscape:perspective
       id="perspective3256"
       inkscape:persp3d-origin="0.5 : 0.33333333 : 1"
       inkscape:vp_z="1 : 0.5 : 1"
       inkscape:vp_y="0 : 1000 : 0"
       inkscape:vp_x="0 : 0.5 : 1"
       sodipodi:type="inkscape:persp3d" />
    <inkscape:perspective
       id="perspective3563"
       inkscape:persp3d-origin="0.5 : 0.33333333 : 1"
       inkscape:vp_z="1 : 0.5 : 1"
       inkscape:vp_y="0 : 1000 : 0"
       inkscape:vp_x="0 : 0.5 : 1"
       sodipodi:type="inkscape:persp3d" />
    <inkscape:perspective
       id="perspective3588"
       inkscape:persp3d-origin="0.5 : 0.33333333 : 1"
       inkscape:vp_z="1 : 0.5 : 1"
       inkscape:vp_y="0 : 1000 : 0"
       inkscape:vp_x="0 : 0.5 : 1"
       sodipodi:type="inkscape:persp3d" />
    <inkscape:perspective
       id="perspective3612"
       inkscape:persp3d-origin="0.5 : 0.33333333 : 1"
       inkscape:vp_z="1 : 0.5 : 1"
       inkscape:vp_y="0 : 1000 : 0"
       inkscape:vp_x="0 : 0.5 : 1"
       sodipodi:type="inkscape:persp3d" />
    <inkscape:perspective
       id="perspective3634"
       inkscape:persp3d-origin="0.5 : 0.33333333 : 1"
       inkscape:vp_z="1 : 0.5 : 1"
       inkscape:vp_y="0 : 1000 : 0"
       inkscape:vp_x="0 : 0.5 : 1"
       sodipodi:type="inkscape:persp3d" />
    <inkscape:perspective
       id="perspective3725"
       inkscape:persp3d-origin="0.5 : 0.33333333 : 1"
       inkscape:vp_z="1 : 0.5 : 1"
       inkscape:vp_y="0 : 1000 : 0"
       inkscape:vp_x="0 : 0.5 : 1"
       sodipodi:type="inkscape:persp3d" />
    <inkscape:perspective
       id="perspective3749"
       inkscape:persp3d-origin="0.5 : 0.33333333 : 1"
       inkscape:vp_z="1 : 0.5 : 1"
       inkscape:vp_y="0 : 1000 : 0"
       inkscape:vp_x="0 : 0.5 : 1"
       sodipodi:type="inkscape:persp3d" />
    <inkscape:perspective
       id="perspective3957"
       inkscape:persp3d-origin="0.5 : 0.33333333 : 1"
       inkscape:vp_z="1 : 0.5 : 1"
       inkscape:vp_y="0 : 1000 : 0"
       inkscape:vp_x="0 : 0.5 : 1"
       sodipodi:type="inkscape:persp3d" />
    <inkscape:perspective
       id="perspective4085"
       inkscape:persp3d-origin="0.5 : 0.33333333 : 1"
       inkscape:vp_z="1 : 0.5 : 1"
       inkscape:vp_y="0 : 1000 : 0"
       inkscape:vp_x="0 : 0.5 : 1"
       sodipodi:type="inkscape:persp3d" />
    <inkscape:perspective
       id="perspective4110"
       inkscape:persp3d-origin="0.5 : 0.33333333 : 1"
       inkscape:vp_z="1 : 0.5 : 1"
       inkscape:vp_y="0 : 1000 : 0"
       inkscape:vp_x="0 : 0.5 : 1"
       sodipodi:type="inkscape:persp3d" />
    <inkscape:perspective
       id="perspective4241"
       inkscape:persp3d-origin="0.5 : 0.33333333 : 1"
       inkscape:vp_z="1 : 0.5 : 1"
       inkscape:vp_y="0 : 1000 : 0"
       inkscape:vp_x="0 : 0.5 : 1"
       sodipodi:type="inkscape:persp3d" />
    <inkscape:perspective
       id="perspective4255"
       inkscape:persp3d-origin="0.5 : 0.33333333 : 1"
       inkscape:vp_z="1 : 0.5 : 1"
       inkscape:vp_y="0 : 1000 : 0"
       inkscape:vp_x="0 : 0.5 : 1"
       sodipodi:type="inkscape:persp3d" />
  </defs>
  <sodipodi:namedview
     id="base"
     pagecolor="#ffffff"
     bordercolor="#666666"
     borderopacity="1.0"
     inkscape:pageopacity="0.0"
     inkscape:pageshadow="2"
     inkscape:zoom="0.34490741"
     inkscape:cx="253.30266"
     inkscape:cy="569.9505"
     inkscape:document-units="in"
     inkscape:current-layer="layer1"
     showgrid="false"
     units="in"
     inkscape:showpageshadow="false"
     borderlayer="false"
     inkscape:window-width="1280"
     inkscape:window-height="1002"
     inkscape:window-x="1276"
     inkscape:window-y="92"
     inkscape:window-maximized="1" />
  <metadata
     id="metadata7">
    <rdf:RDF>
      <cc:Work
         rdf:about="">
        <dc:format>image/svg+xml</dc:format>
        <dc:type
           rdf:resource="http://purl.org/dc/dcmitype/StillImage" />
        <dc:title></dc:title>
      </cc:Work>
    </rdf:RDF>
  </metadata>
  <g
     inkscape:label="Layer 1"
     inkscape:groupmode="layer"
     id="layer1"
     transform="translate(0,27.64025)">
    <path
       id="path4271"
       style="fill:#000000"
       d="m 524.74848,550.63997 c 0,-5.28332 -13.0906,-11.51429 -36.89761,-17.56285 -12.89129,-3.27522 -22.62217,-5.13844 -21.62422,-4.14051 1.91914,1.91916 52.45033,23.73386 56.27868,24.29594 1.23373,0.18125 2.24315,-0.98552 2.24315,-2.59258 z m 119.6349,9.25872 c 0,-4.16191 -3.45912,-6.49767 -13.28791,-8.97261 -19.52211,-4.91571 -24.64921,-4.26597 -26.69919,3.38354 -0.99189,3.70121 -1.82183,7.73888 -1.84429,8.97262 -0.0239,1.23373 9.38042,2.24315 20.89528,2.24315 18.50181,0 20.93611,-0.65422 20.93611,-5.6267 z m -124.4674,3.19599 c 1.36186,-2.20352 -60.6875,-28.79531 -62.58835,-26.82277 -0.44532,0.46212 -1.76132,7.23318 -2.92447,15.04684 l -2.11481,14.20664 33.06269,0 c 18.18447,0 33.73868,-1.09382 34.56494,-2.43071 z m 121.47653,32.7133 c 0,-3.08434 0.85557,-9.88567 1.90123,-15.11408 l 1.90124,-9.50619 -27.02576,0.54682 c -24.02711,0.48614 -37.60872,3.16734 -33.51667,6.61665 2.04258,1.72173 51.83615,22.60283 54.4968,22.85344 1.23374,0.11604 2.24316,-2.3123 2.24316,-5.39664 z M 479.8854,592.30312 c 33.66574,-13.64579 38.88134,-16.09218 38.88134,-18.23732 0,-1.07956 -14.80482,-1.95253 -32.8996,-1.93994 -29.4561,0.0209 -32.89959,0.57631 -32.89959,5.31 0,4.9108 3.27385,23.99275 4.11245,23.96975 0.20562,-0.006 10.46805,-4.10175 22.8054,-9.10249 z m 22.43154,15.09449 c 13.08264,-13.15984 22.72366,-23.92698 21.42443,-23.92698 -5.82293,0 -61.80121,24.97621 -61.80121,27.57426 0,3.81037 11.75972,20.2797 14.48046,20.2797 1.16034,0 12.81368,-10.76714 25.89632,-23.92698 z m 129.02525,11.15565 c 2.4803,-4.79637 4.01013,-9.2202 3.3996,-9.83072 -3.30898,-3.30899 -60.11635,-25.28098 -61.57955,-23.81779 -0.95501,0.95499 8.87939,12.41473 21.85419,25.46609 25.43471,25.58476 27.1293,25.96645 36.32576,8.18242 z m -32.20326,32.40922 c 17.30716,-8.94989 16.87235,-10.77342 -8.6089,-36.10525 -13.05136,-12.97479 -24.44981,-22.87045 -25.32994,-21.99033 -1.56267,1.56267 22.36706,62.38467 24.54457,62.38467 0.60502,0 4.83247,-1.9301 9.39427,-4.28909 z m -78.20617,-26.22762 c 6.94872,-16.74859 11.95541,-31.13062 11.12595,-31.96008 -2.41255,-2.41255 -49.05859,45.30314 -47.21062,48.29324 1.74975,2.83116 19.36587,14.17667 21.95516,14.14003 0.82249,-0.012 7.18075,-13.72457 14.12951,-30.47319 z m 60.05639,34.99802 c 1.36727,-1.22832 -24.29788,-61.30771 -26.1905,-61.30911 -1.20015,-9e-4 -1.46858,57.98937 -0.30232,65.31565 0.17407,1.0935 24.99391,-2.66 26.49282,-4.00654 z m -35.30456,-28.40829 c 0,-18.09478 -1.17921,-32.8996 -2.62048,-32.8996 -2.1636,0 -27.28824,56.10288 -27.28824,60.93415 0,1.33032 9.26321,2.97708 24.67469,4.38638 4.6966,0.4295 5.23403,-2.8995 5.23403,-32.42093 z m -23.11843,43.43333 c -34.67336,-7.7257 -64.21448,-34.01367 -77.37677,-68.85575 -6.4674,-17.11996 -7.2973,-57.09848 -1.48492,-71.53279 4.21223,-10.46057 1.86574,-12.61577 -16.81069,-15.44038 -6.93816,-1.04931 -13.84551,-3.4439 -15.34967,-5.3213 -1.67378,-2.08912 -1.19246,-12.69658 1.24059,-27.34043 2.18648,-13.15984 4.04674,-25.40567 4.1339,-27.21293 0.18241,-3.78196 -71.4396,-15.8146 -93.42407,-15.69544 -7.87844,0.0428 -15.9538,-1.271 -17.94524,-2.91936 -4.77897,-3.95567 -40.475,-10.34744 -45.9831,-8.23376 -2.3703,0.90956 -7.61344,-0.51099 -11.65141,-3.15674 -11.34509,-7.43361 -39.57869,-4.41971 -54.32432,5.79903 -17.2935,11.9844 -18.77405,10.98915 -18.77405,-12.62044 0,-22.30745 8.10451,-87.23268 12.26004,-98.2152 3.62583,-9.58257 7.3973,-8.48047 22.4333,6.55555 14.03534,14.03533 30.43098,19.30094 48.71283,15.64456 4.64119,-0.92824 9.84122,-0.28503 11.5556,1.42937 1.71439,1.71437 17.7249,3.43535 35.57893,3.82437 17.85401,0.38905 34.48069,1.52059 36.94816,2.51458 2.46747,0.99401 50.24665,5.37531 106.17597,9.73624 55.92931,4.36097 107.07323,8.44707 113.65315,9.08026 47.97682,4.61683 77.86569,6.65906 79.81609,5.45365 1.25904,-0.77813 10.73335,0.131 21.05398,2.0206 10.32066,1.88949 21.55501,3.93366 24.9652,4.54263 3.41022,0.60894 11.20886,4.50602 17.33034,8.66016 6.12148,4.15414 12.68022,7.553 14.57497,7.553 7.92549,0 26.33526,16.15059 28.6091,25.09827 1.77775,6.99553 4.75926,10.01248 12.04496,12.18816 6.14338,1.83457 10.2933,5.32534 11.35371,9.55037 2.44094,9.72542 -0.86217,12.97219 -13.27501,13.04858 -9.37887,0.0577 -11.73816,1.4867 -15.68608,9.50089 -4.68469,9.50987 -7.49076,10.90218 -41.7117,20.69654 -7.4024,2.11865 -25.23548,3.69804 -39.62905,3.50979 -27.45735,-0.35911 -33.00643,2.38612 -16.10092,7.96544 13.69601,4.52011 44.4097,32.89326 59.22867,54.71514 6.69094,9.85286 18.96521,32.22133 27.27616,49.70774 8.31091,17.4864 16.56309,32.78226 18.33811,33.99082 1.77502,1.20855 15.34034,2.22751 30.14515,2.26441 14.80482,0.0368 36.06992,0.93133 47.25576,1.98768 18.46101,1.74338 20.25508,2.50046 19.44067,8.20363 -0.71267,4.99048 -3.35833,6.47796 -12.86072,7.23062 -6.57992,0.52114 -13.24209,2.20354 -14.80482,3.73864 -1.56273,1.535 -21.87901,2.7909 -45.14725,2.7909 -49.21307,0 -46.61191,1.4054 -60.89312,-32.89956 -5.13604,-12.33735 -14.89149,-29.83395 -21.6788,-38.88134 -12.04059,-16.04998 -28.57087,-31.78598 -30.92131,-29.43554 -0.64552,0.64549 -2.49857,9.40067 -4.11792,19.45589 -10.20982,63.39714 -70.46194,103.49965 -134.1744,89.30345 z" />
  </g>
</svg>
