<?xml version="1.0" encoding="UTF-8" standalone="no"?>
<!-- Created with Inkscape (http://www.inkscape.org/) -->
<svg
   xmlns:dc="http://purl.org/dc/elements/1.1/"
   xmlns:cc="http://creativecommons.org/ns#"
   xmlns:rdf="http://www.w3.org/1999/02/22-rdf-syntax-ns#"
   xmlns:svg="http://www.w3.org/2000/svg"
   xmlns="http://www.w3.org/2000/svg"
   xmlns:sodipodi="http://sodipodi.sourceforge.net/DTD/sodipodi-0.dtd"
   xmlns:inkscape="http://www.inkscape.org/namespaces/inkscape"
   width="212.64893"
   height="212.21237"
   id="svg3048"
   sodipodi:version="0.32"
   inkscape:version="0.46"
   version="1.0"
   sodipodi:docname="Ratsastuspaikka 774f tunnusosa.svg"
   inkscape:output_extension="org.inkscape.output.svg.inkscape">
  <defs
     id="defs3050">
    <inkscape:perspective
       sodipodi:type="inkscape:persp3d"
       inkscape:vp_x="0 : 526.18109 : 1"
       inkscape:vp_y="0 : 1000 : 0"
       inkscape:vp_z="744.09448 : 526.18109 : 1"
       inkscape:persp3d-origin="372.04724 : 350.78739 : 1"
       id="perspective3056" />
  </defs>
  <sodipodi:namedview
     id="base"
     pagecolor="#ffffff"
     bordercolor="#666666"
     borderopacity="1.0"
     gridtolerance="10000"
     guidetolerance="10"
     objecttolerance="10"
     inkscape:pageopacity="0.0"
     inkscape:pageshadow="2"
     inkscape:zoom="0.35"
     inkscape:cx="375"
     inkscape:cy="520"
     inkscape:document-units="px"
     inkscape:current-layer="layer1"
     showgrid="false"
     inkscape:window-width="812"
     inkscape:window-height="654"
     inkscape:window-x="832"
     inkscape:window-y="0" />
  <metadata
     id="metadata3053">
    <rdf:RDF>
      <cc:Work
         rdf:about="">
        <dc:format>image/svg+xml</dc:format>
        <dc:type
           rdf:resource="http://purl.org/dc/dcmitype/StillImage" />
      </cc:Work>
    </rdf:RDF>
  </metadata>
  <g
     inkscape:label="Layer 1"
     inkscape:groupmode="layer"
     id="layer1"
     transform="translate(-292.80379,-151.71074)">
    <g
       id="g3120">
      <path
         id="path433"
         style="fill:#ffffff;fill-opacity:1;fill-rule:evenodd;stroke:none"
         d="M 292.80379,151.71074 L 505.45271,151.71074 L 505.45271,363.92311 L 292.80379,363.92311 L 292.80379,151.71074 z" />
      <path
         id="path439"
         style="fill:#000000;fill-opacity:1;fill-rule:evenodd;stroke:none"
         d="M 490.21793,338.55792 L 489.84853,338.92732 C 489.66383,339.10642 489.56309,339.35268 489.56309,339.61014 L 489.56309,344.78168 L 480.07073,344.78168 C 480.68639,342.59329 481.80018,340.57281 483.33373,338.88254 C 484.56505,337.28183 485.25347,335.3341 485.29825,333.31362 L 483.9382,327.28575 L 481.41959,319.27657 C 478.87859,311.74873 474.04846,305.20035 467.60642,300.54372 C 466.04488,299.69299 464.52252,298.7695 463.04494,297.78445 C 458.39951,294.92443 454.47048,291.05137 451.54329,286.45071 L 449.94817,287.43017 C 445.28595,290.72675 443.07517,296.50835 444.35127,302.07728 C 444.59193,304.22089 445.0229,306.34212 445.64975,308.40738 C 446.11429,309.59952 445.70572,310.94837 444.66469,311.68717 C 437.7805,316.66282 431.87576,322.86979 427.25271,329.99465 C 426.13333,331.62335 425.32178,333.44235 424.85164,335.35649 C 424.5662,337.39936 422.80317,338.91053 420.73791,338.88814 C 420.13344,340.81907 419.70808,342.81157 419.4842,344.82646 L 409.28104,344.82646 L 412.15785,339.52059 C 413.17649,337.64563 414.40781,335.8882 415.82383,334.29868 L 431.38883,312.98565 C 432.67612,311.32896 432.81604,309.05102 431.73584,307.24882 L 428.57358,298.15384 L 425.32738,285.46565 L 417.73797,286.69697 C 406.24752,288.23612 394.61714,288.37604 383.09311,287.10555 L 385.21993,294.86286 L 387.02773,305.13319 L 392.92128,325.11975 L 394.80184,329.25026 L 395.93241,330.91255 L 396.25703,331.64574 C 396.8559,333.47593 395.98838,335.46283 394.23095,336.26319 C 391.88025,338.48516 390.64893,341.64742 390.884,344.87683 L 380.61927,344.87683 L 381.41403,343.16977 C 382.90281,340.18662 384.78897,337.42735 387.02214,334.95351 C 388.11913,333.30802 388.36539,331.23717 387.67697,329.37899 L 380.71442,314.14981 L 376.75181,306.95218 L 370.65118,297.79564 L 365.7203,288.41522 L 361.79127,286.45071 L 357.2186,288.6447 C 352.13101,290.71555 346.69082,291.77337 341.20025,291.76217 L 333.60525,293.3349 C 332.38512,293.58677 331.53999,294.71174 331.64073,295.95426 L 334.5959,312.14052 C 334.74142,312.91289 335.21715,313.58452 335.89998,313.9819 C 338.31225,314.28973 340.34392,315.94082 341.14428,318.24115 L 346.05837,318.24115 L 346.05837,327.7447 L 342.57149,327.2018 C 337.04734,325.84734 332.42989,322.07503 330.00084,316.92587 L 324.43191,300.54372 L 321.90211,290.42451 C 321.52712,288.93573 322.09241,287.3686 323.32932,286.4619 C 331.25454,281.54782 340.10885,278.3128 349.33815,276.94716 C 346.41097,270.68422 344.84384,263.87278 344.74869,256.955 C 342.36441,248.83389 338.59209,241.18851 333.60525,234.34909 L 329.01578,236.96844 L 326.39643,246.47199 C 326.46359,248.76673 326.57553,251.06146 326.72665,253.35059 C 326.31247,254.6099 325.09235,255.42145 323.77707,255.3207 C 321.72301,257.11731 318.87978,257.69379 316.29401,256.84866 C 313.46197,256.27218 311.57022,253.59126 311.97879,250.73124 L 307.06471,215.99123 L 298.54062,211.07715 L 301.74205,210.59581 C 306.22517,210.03612 310.75867,209.98015 315.25298,210.42231 L 318.52717,209.43725 C 330.47657,206.43171 343.14238,209.38688 352.52279,217.36807 L 371.85452,233.67186 C 372.5989,234.11962 373.39926,234.45543 374.2444,234.67371 L 385.38224,228.44995 L 387.06691,209.8962 C 387.41392,206.0903 389.14896,202.54746 391.93622,199.9337 L 393.21232,198.98223 C 394.42685,198.06993 395.14885,196.63712 395.16004,195.12036 C 395.16004,194.28642 394.95855,193.46368 394.56117,192.72488 C 393.65447,193.17823 392.59666,193.22301 391.65638,192.84242 C 390.7161,192.46183 389.9829,191.70065 389.64149,190.74358 C 389.10419,189.38913 388.75718,187.96751 388.61726,186.51791 C 388.29823,184.83884 388.42696,183.1094 388.98665,181.50308 C 387.72735,179.65051 387.72735,177.21025 388.98665,175.35768 C 390.40827,173.6954 392.32241,172.52564 394.44923,172.01073 C 397.11896,171.03687 400.09092,171.39507 402.45841,172.9734 C 403.16362,173.48271 403.77928,174.10397 404.2774,174.82038 C 405.22888,176.17483 405.71581,177.80353 405.67663,179.45462 L 405.67663,183.71946 C 405.56469,186.01419 405.13373,188.27534 404.39494,190.44694 C 403.88562,192.79764 404.60202,195.2379 406.29789,196.93936 C 409.27544,202.77693 410.55154,209.33091 409.97506,215.85691 C 409.95267,218.77289 410.75303,221.63291 412.28658,224.11794 C 413.67461,227.78392 414.39102,231.67377 414.40221,235.5972 L 414.40221,240.15868 L 416.38911,240.02995 C 421.16887,239.72212 425.90945,238.93296 430.5325,237.67365 L 460.72222,241.55791 L 464.0244,240.62882 C 477.21631,237.88074 490.25711,245.88991 493.77197,258.89153 C 496.39132,267.9977 496.22341,277.67476 493.27384,286.68018 C 492.4343,288.57753 492.65818,290.77712 493.86152,292.46179 C 495.06485,294.15205 497.07414,295.07554 499.1394,294.89085 L 496.35214,296.54753 C 492.87646,297.74527 489.03698,296.44119 487.0109,293.37408 C 482.71247,287.09995 480.51289,279.63367 480.71438,272.03307 C 480.87669,264.61717 479.53903,257.24044 476.77975,250.35625 C 474.6977,245.97387 469.52056,244.00935 465.05983,245.9235 L 467.79112,248.94023 C 473.83578,256.52964 476.12491,266.44736 474.02048,275.91733 C 474.23876,285.35931 478.19017,294.32556 485.00721,300.85715 L 484.97363,306.76748 C 484.80012,307.98201 484.91766,309.21333 485.29825,310.37189 L 492.42871,333.20168 C 492.95482,334.72964 492.50147,336.4199 491.28694,337.48332 L 490.21793,338.55792" />
    </g>
  </g>
</svg>
