<?xml version="1.0" encoding="UTF-8" standalone="no"?>
<!-- Created with Inkscape (http://www.inkscape.org/) -->

<svg
   xmlns:dc="http://purl.org/dc/elements/1.1/"
   xmlns:cc="http://creativecommons.org/ns#"
   xmlns:rdf="http://www.w3.org/1999/02/22-rdf-syntax-ns#"
   xmlns:svg="http://www.w3.org/2000/svg"
   xmlns="http://www.w3.org/2000/svg"
   xmlns:xlink="http://www.w3.org/1999/xlink"
   xmlns:sodipodi="http://sodipodi.sourceforge.net/DTD/sodipodi-0.dtd"
   xmlns:inkscape="http://www.inkscape.org/namespaces/inkscape"
   width="25"
   height="25"
   id="svg2"
   version="1.1"
   inkscape:version="0.48.2 r9819"
   sodipodi:docname="helpButton.svg">
  <title
     id="title4051">Help Orb Button</title>
  <defs
     id="defs4">
    <linearGradient
       inkscape:collect="always"
       id="linearGradient3954">
      <stop
         style="stop-color:#ffffff;stop-opacity:1;"
         offset="0"
         id="stop3956" />
      <stop
         style="stop-color:#ffffff;stop-opacity:0;"
         offset="1"
         id="stop3958" />
    </linearGradient>
    <linearGradient
       inkscape:collect="always"
       id="linearGradient3938">
      <stop
         style="stop-color:#ffffff;stop-opacity:1"
         offset="0"
         id="stop3940" />
      <stop
         style="stop-color:#999999;stop-opacity:0"
         offset="1"
         id="stop3942" />
    </linearGradient>
    <linearGradient
       inkscape:collect="always"
       id="linearGradient3877">
      <stop
         style="stop-color:#0066ff;stop-opacity:1"
         offset="0"
         id="stop3879" />
      <stop
         style="stop-color:#214478;stop-opacity:1"
         offset="1"
         id="stop3881" />
    </linearGradient>
    <linearGradient
       inkscape:collect="always"
       id="linearGradient3833">
      <stop
         style="stop-color:#808080;stop-opacity:1"
         offset="0"
         id="stop3835" />
      <stop
         id="stop3853"
         offset="0.31766224"
         style="stop-color:#93a7ac;stop-opacity:1" />
      <stop
         style="stop-color:#ffffff;stop-opacity:1"
         offset="0.50744784"
         id="stop3855" />
      <stop
         id="stop3843"
         offset="0.75959182"
         style="stop-color:#999999;stop-opacity:1" />
      <stop
         style="stop-color:#cccccc;stop-opacity:1"
         offset="1"
         id="stop3837" />
    </linearGradient>
    <linearGradient
       inkscape:collect="always"
       id="linearGradient3823">
      <stop
         style="stop-color:#ffffff;stop-opacity:1"
         offset="0"
         id="stop3825" />
      <stop
         style="stop-color:#87aade;stop-opacity:1"
         offset="1"
         id="stop3827" />
    </linearGradient>
    <radialGradient
       inkscape:collect="always"
       xlink:href="#linearGradient3823"
       id="radialGradient3829"
       cx="749.98822"
       cy="801.96179"
       fx="749.98822"
       fy="801.96179"
       r="131.03564"
       gradientTransform="matrix(0.07498471,9.8795263e-4,-9.985777e-4,0.07574194,-43.145462,978.44081)"
       gradientUnits="userSpaceOnUse" />
    <linearGradient
       inkscape:collect="always"
       xlink:href="#linearGradient3833"
       id="linearGradient3839"
       x1="9.1935568"
       y1="290.32257"
       x2="439.19357"
       y2="233.06451"
       gradientUnits="userSpaceOnUse" />
    <radialGradient
       inkscape:collect="always"
       xlink:href="#linearGradient3877"
       id="radialGradient3883"
       cx="750"
       cy="802.36218"
       fx="750"
       fy="802.36218"
       r="240"
       gradientTransform="matrix(0.04373721,-2.556663e-7,2.5423627e-7,0.04349258,-20.535873,1005.0389)"
       gradientUnits="userSpaceOnUse" />
    <radialGradient
       inkscape:collect="always"
       xlink:href="#linearGradient3938"
       id="radialGradient3946"
       cx="256.04773"
       cy="75.115677"
       fx="256.04773"
       fy="75.115677"
       r="105.24194"
       gradientTransform="matrix(-2.6062703,-0.040027,0.02742827,-0.85438294,921.3177,196.09319)"
       gradientUnits="userSpaceOnUse" />
    <radialGradient
       inkscape:collect="always"
       xlink:href="#linearGradient3954"
       id="radialGradient3960"
       cx="256.3291"
       cy="61.007351"
       fx="256.3291"
       fy="61.007351"
       r="240"
       gradientUnits="userSpaceOnUse"
       gradientTransform="matrix(-3.1568234,0,0,-1.951177,1065.5148,93.420931)" />
    <radialGradient
       inkscape:collect="always"
       xlink:href="#linearGradient3954"
       id="radialGradient4004"
       gradientUnits="userSpaceOnUse"
       gradientTransform="matrix(-0.09666638,0,0,-0.03916021,37.239452,1030.956)"
       cx="256.3291"
       cy="61.007351"
       fx="256.3291"
       fy="61.007351"
       r="240" />
    <radialGradient
       inkscape:collect="always"
       xlink:href="#linearGradient3954"
       id="radialGradient4006"
       gradientUnits="userSpaceOnUse"
       gradientTransform="matrix(-2.1703161,0,0,-0.8792098,810.66642,48.396324)"
       cx="256.3291"
       cy="61.007351"
       fx="256.3291"
       fy="61.007351"
       r="240" />
    <radialGradient
       inkscape:collect="always"
       xlink:href="#linearGradient3954"
       id="radialGradient4045"
       gradientUnits="userSpaceOnUse"
       gradientTransform="matrix(-0.09666638,0,0,-0.03916021,37.239452,1030.956)"
       cx="256.3291"
       cy="61.007351"
       fx="256.3291"
       fy="61.007351"
       r="240" />
  </defs>
  <sodipodi:namedview
     id="base"
     pagecolor="#ffffff"
     bordercolor="#666666"
     borderopacity="1.0"
     inkscape:pageopacity="0.0"
     inkscape:pageshadow="2"
     inkscape:zoom="9.28"
     inkscape:cx="41.58296"
     inkscape:cy="-6.1977669"
     inkscape:document-units="px"
     inkscape:current-layer="layer1"
     showgrid="false"
     inkscape:window-width="1920"
     inkscape:window-height="1028"
     inkscape:window-x="-8"
     inkscape:window-y="-8"
     inkscape:window-maximized="1">
    <inkscape:grid
       type="xygrid"
       id="grid2985"
       empspacing="5"
       visible="true"
       enabled="true"
       snapvisiblegridlinesonly="true" />
  </sodipodi:namedview>
  <metadata
     id="metadata7">
    <rdf:RDF>
      <cc:Work
         rdf:about="">
        <dc:format>image/svg+xml</dc:format>
        <dc:type
           rdf:resource="http://purl.org/dc/dcmitype/StillImage" />
        <dc:title>Help Orb Button</dc:title>
        <dc:date>2011-01-15</dc:date>
        <dc:creator>
          <cc:Agent>
            <dc:title>John Widmark Catada</dc:title>
          </cc:Agent>
        </dc:creator>
        <dc:rights>
          <cc:Agent>
            <dc:title>John Widmark Catada</dc:title>
          </cc:Agent>
        </dc:rights>
        <dc:publisher>
          <cc:Agent>
            <dc:title>John Widmark Catada</dc:title>
          </cc:Agent>
        </dc:publisher>
        <dc:subject>
          <rdf:Bag>
            <rdf:li>help</rdf:li>
            <rdf:li>help button</rdf:li>
            <rdf:li>help orb</rdf:li>
            <rdf:li>glossy help button</rdf:li>
            <rdf:li>glossy help orb</rdf:li>
          </rdf:Bag>
        </dc:subject>
        <dc:description>A glossy help orb button.</dc:description>
        <cc:license
           rdf:resource="http://artlibre.org/licence/lal" />
      </cc:Work>
      <cc:License
         rdf:about="http://artlibre.org/licence/lal">
        <cc:permits
           rdf:resource="http://creativecommons.org/ns#Reproduction" />
        <cc:permits
           rdf:resource="http://creativecommons.org/ns#Distribution" />
        <cc:permits
           rdf:resource="http://creativecommons.org/ns#DerivativeWorks" />
        <cc:requires
           rdf:resource="http://creativecommons.org/ns#ShareAlike" />
        <cc:requires
           rdf:resource="http://creativecommons.org/ns#Notice" />
        <cc:requires
           rdf:resource="http://creativecommons.org/ns#Attribution" />
      </cc:License>
    </rdf:RDF>
  </metadata>
  <g
     inkscape:label="Layer 1"
     inkscape:groupmode="layer"
     id="layer1"
     transform="translate(0,-1027.3622)">
    <path
       sodipodi:open="true"
       sodipodi:end="6.2784273"
       sodipodi:start="0"
       transform="matrix(0.04454023,0,0,0.04454023,1.1321837,1028.8004)"
       d="m 490,250 a 240,240 0 1 1 -0.003,-1.14192"
       sodipodi:ry="240"
       sodipodi:rx="240"
       sodipodi:cy="250"
       sodipodi:cx="250"
       id="path3831"
       style="fill:url(#linearGradient3839);fill-opacity:1;stroke:none"
       sodipodi:type="arc" />
    <path
       inkscape:connector-curvature="0"
       d="m 14.06056,1046.1524 c 0,0.8192 -0.781636,1.4833 -1.745832,1.4833 -0.964196,0 -1.745831,-0.6641 -1.745831,-1.4833 0,-0.8192 0.781635,-1.4833 1.745831,-1.4833 0.960955,0 1.74124,0.6598 1.745812,1.4763 m -2.244929,-13.9312 c -2.6215893,0.027 -5.0391463,1.8728 -5.2511323,4.1038 -0.05828,0.2755 -0.08803,0.5518 -0.120806,0.8311 1.508117,0.9512 1.508117,0.9512 3.255897,0.3278 0.03416,-1.0484 0.5162253,-2.2525 1.7302443,-2.6984 1.421462,-0.5206 3.379298,0.3878 3.423467,1.7597 -0.01359,0.9475 -0.995536,1.5611 -1.769958,2.1136 -1.306409,0.9348 -2.41947,2.2487 -2.387645,3.7632 -0.02726,0.4618 7.66e-4,0.924 0.0171,1.3857 1.603593,0.6565 1.603593,0.6565 3.119504,0 -0.268888,-1.4624 -0.01872,-2.2623 1.022949,-2.9517 1.292974,-0.992 2.777083,-2.0268 3.17601,-3.541 0.612872,-2.2566 -1.469615,-4.6804 -4.150246,-4.968 -0.677601,-0.1208 -1.373341,-0.1344 -2.065382,-0.1258 z"
       style="fill:url(#radialGradient3829);fill-opacity:1;stroke:#435f9f;stroke-width:0.00890805;stroke-miterlimit:4;stroke-opacity:1;stroke-dasharray:none"
       id="path3045" />
    <path
       style="fill:url(#radialGradient3883);fill-opacity:1;stroke:none"
       d="m 12.267241,1029.2458 c -5.9037333,0 -10.6896553,4.7859 -10.6896553,10.6897 0,5.9037 4.785922,10.6896 10.6896553,10.6896 5.903734,0 10.689655,-4.7859 10.689655,-10.6896 l 0,-0.052 c -0.02799,-5.8839 -4.805774,-10.6382 -10.689655,-10.6382 z m -0.222701,2.7768 c 0.624556,-10e-4 1.249937,0.023 1.860947,0.1308 2.762506,0.2952 4.908845,2.7816 4.277253,5.0971 -0.411111,1.5537 -1.94124,2.6163 -3.273706,3.6342 -1.073484,0.7074 -1.330757,1.5281 -1.053655,3.0288 -1.562211,0.6736 -1.562676,0.6736 -3.215248,0 -0.01683,-0.4738 -0.04479,-0.9487 -0.0167,-1.4225 -0.0328,-1.5541 1.113146,-2.9019 2.459456,-3.8611 0.798075,-0.567 1.810748,-1.1964 1.824758,-2.1686 -0.04552,-1.4077 -2.063544,-2.3394 -3.528422,-1.8052 -1.251098,0.4576 -1.7477953,1.6927 -1.7830013,2.7684 -1.801162,0.6397 -1.801648,0.6392 -3.355828,-0.3368 0.03378,-0.2866 0.06521,-0.5692 0.12527,-0.8519 0.21846,-2.2892 2.709977,-4.1841 5.4116383,-4.2118 0.08915,-10e-4 0.178018,-10e-4 0.267241,-10e-4 z m 0.246363,12.7817 c 0.990305,0 1.794992,0.678 1.799704,1.5157 l 0,0.01 c 0,0.8406 -0.806058,1.5214 -1.799704,1.5214 -0.993645,0 -1.798312,-0.6808 -1.798312,-1.5214 0,-0.8406 0.804667,-1.5227 1.798312,-1.5227 z"
       id="path2987"
       inkscape:connector-curvature="0" />
    <g
       style="font-size:360.04290771px;font-style:normal;font-weight:normal;line-height:125%;letter-spacing:0px;word-spacing:0px;fill:#e6e6e6;fill-opacity:1;stroke:none;font-family:Sans"
       id="text2989" />
    <path
       sodipodi:open="true"
       sodipodi:end="6.2784273"
       sodipodi:start="0"
       transform="matrix(0.04939821,0,0,0.07141963,-0.24016827,1024.0152)"
       d="m 361.29034,164.91936 a 105.24194,47.177418 0 1 1 -0.001,-0.22447"
       sodipodi:ry="47.177418"
       sodipodi:rx="105.24194"
       sodipodi:cy="164.91936"
       sodipodi:cx="256.0484"
       id="path3903"
       style="opacity:0;fill:#ffffff;fill-opacity:0.60355033;stroke:none"
       sodipodi:type="arc" />
    <path
       style="fill:url(#radialGradient4045);fill-opacity:1;stroke:none"
       d="m 11.890041,1032.3664 c -1.9825103,0.01 -4.0218033,1.0434 -4.8882903,2.8728 -0.21642,0.5179 -0.348392,1.0966 -0.35493,1.648 -1.62e-4,0 1.61e-4,0 0,0 -0.0113,0.097 -0.01905,0.1941 -0.02227,0.2923 0.294187,0.2309 0.619826,0.4434 0.974317,0.6347 0.498466,0.1378 0.933824,-0.016 1.997351,-0.3939 0.03521,-1.0757 0.5319033,-2.3108 1.7830013,-2.7684 1.464878,-0.5342 3.482904,0.3975 3.528422,1.8052 -0.01401,0.9723 -1.026683,1.6016 -1.824758,2.1686 -0.124864,0.089 -0.248212,0.1815 -0.368849,0.277 2.033214,-0.08 3.842479,-0.7031 5.098465,-1.6494 0.403013,-1.3813 -0.296117,-2.8964 -1.41972,-3.7261 -1.20555,-0.9526 -2.809227,-1.1736 -4.310659,-1.1636 -0.06379,0 -0.128128,0 -0.19208,0 z"
       id="path3952"
       inkscape:connector-curvature="0" />
    <path
       style="fill:url(#radialGradient4004);fill-opacity:1;stroke:none"
       d="m 12.267241,1029.282 c -4.0588163,0 -7.3491383,2.1557 -7.3491383,4.8159 0,1.0356 0.498821,1.9955 1.347342,2.781 0.02608,-0.2155 0.05479,-0.4293 0.100216,-0.6431 0.21846,-2.2892 2.709977,-4.1841 5.4116383,-4.2118 0.08915,-10e-4 0.178018,-10e-4 0.267241,-10e-4 0.624556,0 1.249937,0.023 1.860947,0.1308 2.619219,0.2799 4.683534,2.529 4.352415,4.7352 0.855151,-0.7873 1.358477,-1.7506 1.358477,-2.7907 l 0,-0.022 c -0.01925,-2.6513 -3.30397,-4.7936 -7.349138,-4.7936 z m -0.02227,5.2223 c -0.296909,0 -0.591086,0.052 -0.865751,0.1518 -1.251098,0.4576 -1.7477953,1.6927 -1.7830013,2.7684 -1.063527,0.3777 -1.498885,0.5316 -1.997351,0.3939 1.269415,0.685 2.8956793,1.0968 4.6683733,1.0968 0.150025,0 0.298997,0 0.446794,-0.01 0.120637,-0.096 0.243985,-0.188 0.368849,-0.277 0.798075,-0.5669 1.810748,-1.1963 1.824758,-2.1685 -0.03698,-1.1438 -1.376064,-1.9727 -2.662671,-1.957 z"
       id="path4002"
       inkscape:connector-curvature="0" />
  </g>
</svg>
